<?xml version="1.0" encoding="UTF-8"?>
<svg version="1.1" xmlns="http://www.w3.org/2000/svg" width="600" height="600">
<path d="M0 0 C15.14262305 11.22916785 26.16118501 27.4547449 29.83447266 46.09667969 C32.35400948 67.42275925 29.03538815 87.67351704 15.46142578 104.9465332 C10.50661443 110.94062502 5.06261663 115.63705163 -1.29443359 120.09277344 C-3.76363093 121.72018753 -3.76363093 121.72018753 -5.72802734 123.79980469 C-5.08865234 124.23292969 -4.44927734 124.66605469 -3.79052734 125.11230469 C-1.72802734 126.79980469 -1.72802734 126.79980469 -0.72802734 129.79980469 C-0.38452204 133.57836302 -0.21524238 135.93029975 -2.16552734 139.23730469 C-5.94849227 141.54399062 -9.4103562 141.59602921 -13.72802734 140.79980469 C-17.13759356 138.05015451 -17.69388585 133.93637065 -18.72802734 129.79980469 C-19.88818359 130.01636719 -19.88818359 130.01636719 -21.07177734 130.23730469 C-27.0562665 131.30384731 -32.65140169 132.03352106 -38.72802734 131.79980469 C-38.83115234 132.37730469 -38.93427734 132.95480469 -39.04052734 133.54980469 C-39.86193709 136.23805478 -40.77261859 137.77455991 -42.72802734 139.79980469 C-46.15296879 141.22686362 -47.75576337 140.79167516 -51.35302734 139.73730469 C-55.23434269 137.50914217 -56.22689407 135.94999667 -57.72802734 131.79980469 C-57.72802734 131.13980469 -57.72802734 130.47980469 -57.72802734 129.79980469 C-58.84177734 129.71730469 -59.95552734 129.63480469 -61.10302734 129.54980469 C-65.52912869 129.00927196 -69.26006983 127.51955638 -73.33740234 125.76855469 C-75.91700069 124.65671266 -75.91700069 124.65671266 -79.54052734 123.86230469 C-84.09623478 122.34373554 -86.19529887 119.57250581 -89.27490234 116.01074219 C-89.83693359 115.36363281 -90.39896484 114.71652344 -90.97802734 114.04980469 C-91.86941406 113.00566406 -91.86941406 113.00566406 -92.77880859 111.94042969 C-94.69697172 109.76318064 -94.69697172 109.76318064 -96.89599609 107.84667969 C-101.85936859 103.37024735 -105.12697248 98.84486138 -108.10302734 92.92480469 C-108.42456787 92.28929687 -108.7461084 91.65378906 -109.07739258 90.99902344 C-113.72740097 81.22970594 -115.23716332 72.19188789 -114.60302734 61.42480469 C-114.54445557 60.32209229 -114.48588379 59.21937988 -114.42553711 58.08325195 C-113.13231931 36.87604752 -105.47120622 19.96542129 -90.10302734 5.17480469 C-65.15860964 -16.40803759 -27.28839963 -18.95306197 0 0 Z " fill="#08364A" transform="translate(341.72802734375,240.2001953125)"/>
<path d="M0 0 C11.45575303 8.08289195 18.12815087 16.41954902 20.83984375 30.36328125 C22.09934398 40.38723765 20.87060806 51.00878389 16.3125 60.125 C15.6525 60.125 14.9925 60.125 14.3125 60.125 C14.19777344 60.71667969 14.08304687 61.30835938 13.96484375 61.91796875 C11.77816111 69.31602678 3.67763322 74.5382242 -2.6875 78.125 C-5.36054057 79.13522499 -7.98107743 79.93371331 -10.75390625 80.6171875 C-12.67986767 80.94926751 -12.67986767 80.94926751 -13.6875 82.125 C-27.4101147 83.16346814 -38.39693145 81.72733794 -49.6875 73.125 C-50.6775 72.3825 -51.6675 71.64 -52.6875 70.875 C-58.36706582 66.01531901 -62.11297268 60.07622377 -64.6875 53.125 C-65.038125 52.25230469 -65.38875 51.37960937 -65.75 50.48046875 C-66.92991361 46.25736129 -66.98042161 42.42261983 -66.9375 38.0625 C-66.94523438 37.27294922 -66.95296875 36.48339844 -66.9609375 35.66992188 C-66.94641551 31.33873774 -66.60475519 28.09123021 -64.6875 24.125 C-64.31878912 22.46580104 -63.97468326 20.8002357 -63.6875 19.125 C-64.863125 18.691875 -64.863125 18.691875 -66.0625 18.25 C-68.6875 17.125 -68.6875 17.125 -70.6875 15.125 C-71.04627543 12.32655166 -71.02562547 10.721692 -69.625 8.25 C-67.6875 7.125 -67.6875 7.125 -64.125 7.1875 C-60.6875 8.125 -60.6875 8.125 -59.47265625 10.18359375 C-59.08400391 11.14458984 -59.08400391 11.14458984 -58.6875 12.125 C-53.88649002 7.29891948 -51.11068248 4.17804127 -50.6875 -2.875 C-48.30966162 -5.25283838 -46.96676335 -5.46509208 -43.6875 -5.875 C-43.0275 -5.545 -42.3675 -5.215 -41.6875 -4.875 C-41.6875 -4.215 -41.6875 -3.555 -41.6875 -2.875 C-40.75550781 -3.17535156 -39.82351563 -3.47570312 -38.86328125 -3.78515625 C-25.2090862 -7.95136232 -12.3210104 -7.97483036 0 0 Z " fill="#0E6F85" transform="translate(322.6875,261.875)"/>
<path d="M0 0 C5.56318463 2.85780032 10.85304842 8.30523901 12.8359375 14.25390625 C13.01060714 17.04003024 13.11291189 19.77883037 13.1484375 22.56640625 C13.17744141 23.31341797 13.20644531 24.06042969 13.23632812 24.83007812 C13.31047621 31.32659084 11.1354714 34.65910146 6.828125 39.51953125 C0.66078933 45.29998609 -4.14262066 47.0203596 -12.48046875 47.34375 C-19.97353161 47.04402749 -25.43276851 43.0570764 -30.5390625 37.81640625 C-35.4185339 30.12185519 -36.60600942 22.94945824 -34.66015625 13.9140625 C-32.85468577 8.53891897 -30.04083416 3.83916951 -24.9453125 1.03125 C-16.21596423 -2.92246456 -9.24719689 -3.18811301 0 0 Z " fill="#35AAC0" transform="translate(311.1640625,277.74609375)"/>
<path d="M0 0 C3 2 3 2 4 5 C4.22635971 8.10017698 4.18515463 11.20489136 4.1875 14.3125 C4.19974609 15.15490234 4.21199219 15.99730469 4.22460938 16.86523438 C4.23577752 21.62658592 3.95865182 25.56726167 2 30 C-1.63790035 33.63790035 -7.45805291 32.36952456 -12.375 32.375 C-13.52484375 32.39949219 -14.6746875 32.42398438 -15.859375 32.44921875 C-16.96539062 32.45308594 -18.07140625 32.45695313 -19.2109375 32.4609375 C-20.22462402 32.46915527 -21.23831055 32.47737305 -22.28271484 32.48583984 C-25.78212555 31.86015904 -26.93297779 30.86668196 -29 28 C-29.50170898 25.40625 -29.50170898 25.40625 -29.49609375 22.5 C-29.49673828 21.448125 -29.49738281 20.39625 -29.49804688 19.3125 C-29.47806641 18.219375 -29.45808594 17.12625 -29.4375 16 C-29.44458984 14.906875 -29.45167969 13.81375 -29.45898438 12.6875 C-29.38583805 3.5048228 -29.38583805 3.5048228 -26 0 C-18.31697615 -2.56100795 -7.91273024 -1.43867822 0 0 Z " fill="#9443E7" transform="translate(362,549)"/>
<path d="M0 0 C3.99867831 1.94807405 5.37035715 5.36990749 7.4375 9.1875 C8.36369141 10.79431641 8.36369141 10.79431641 9.30859375 12.43359375 C15.32559588 23.09954722 15.32559588 23.09954722 14.4375 27.1875 C11.00048668 30.58567701 6.78654129 32.95084535 2.625 35.375 C2.04685547 35.73013672 1.46871094 36.08527344 0.87304688 36.45117188 C-3.61693928 39.0657826 -7.32121699 40.25752742 -12.5625 40.1875 C-14.76171875 38.27734375 -14.76171875 38.27734375 -16.5625 35.1875 C-16.94486816 34.55602051 -17.32723633 33.92454102 -17.72119141 33.27392578 C-18.99551698 31.12655377 -20.18939917 28.94746628 -21.375 26.75 C-22.00438477 25.64301758 -22.00438477 25.64301758 -22.64648438 24.51367188 C-24.44205845 21.18579571 -25.52051232 18.74959314 -25.8046875 14.9453125 C-23.92235225 10.76629147 -20.86177496 9.50221559 -16.875 7.5 C-16.16666016 7.12294922 -15.45832031 6.74589844 -14.72851562 6.35742188 C-12.6848467 5.27614552 -10.62648208 4.2293439 -8.5625 3.1875 C-6.89960938 2.31738281 -6.89960938 2.31738281 -5.203125 1.4296875 C-2.5625 0.1875 -2.5625 0.1875 0 0 Z " fill="#7134B3" transform="translate(494.5625,509.8125)"/>
<path d="M0 0 C2.87627494 1.19971801 5.51166598 2.72179682 8.1875 4.3125 C8.89841797 4.71662109 9.60933594 5.12074219 10.34179688 5.53710938 C16.76154698 9.25126395 16.76154698 9.25126395 19 12 C18.86816902 17.46439397 16.98711973 21.57364192 14.25 26.1875 C13.91484375 26.79013672 13.5796875 27.39277344 13.234375 28.01367188 C11.01046088 31.85076612 8.83590004 34.72316976 5 37 C0.19232127 37.04897466 -4.11660265 33.95333224 -8.1875 31.625 C-9.27321289 31.02558594 -9.27321289 31.02558594 -10.38085938 30.4140625 C-11.07373047 30.0221875 -11.76660156 29.6303125 -12.48046875 29.2265625 C-13.10848389 28.87158691 -13.73649902 28.51661133 -14.38354492 28.15087891 C-16 27 -16 27 -18 24 C-17.76763547 18.34124024 -15.97453222 14.46858024 -13.125 9.75 C-12.77308594 9.13898437 -12.42117187 8.52796875 -12.05859375 7.8984375 C-6.86519028 -0.94386282 -6.86519028 -0.94386282 0 0 Z " fill="#9642E8" transform="translate(223,513)"/>
<path d="M0 0 C5.32528606 5.04500784 11.35544405 13.38068237 12.375 20.6875 C11.79690809 24.25240012 10.01346729 25.28984744 7.26953125 27.44140625 C-5.01328168 35.87659103 -5.01328168 35.87659103 -11 35 C-16.87740313 30.63888023 -22.16138536 21.70388135 -23.75 14.6875 C-21.88789417 8.01495412 -13.44064315 4.69840622 -7.90234375 1.35546875 C-4.90867043 -0.04265325 -3.24787999 -0.48467506 0 0 Z " fill="#6453F9" transform="translate(144,432)"/>
<path d="M0 0 C0.7115625 -0.02900391 1.423125 -0.05800781 2.15625 -0.08789062 C5.63493737 -0.1300762 7.61189601 0.02822 10.453125 2.109375 C12.72176001 5.34046123 12.84144912 8.48825281 13 12.3125 C13.06316406 13.24449219 13.12632813 14.17648437 13.19140625 15.13671875 C13.49982898 22.58860976 13.49982898 22.58860976 11.1875 25.9375 C6.95083235 28.60054823 2.90744722 28.52780029 -1.9375 28.5625 C-2.65357422 28.583125 -3.36964844 28.60375 -4.10742188 28.625 C-7.30746233 28.64872597 -9.6042001 28.52781514 -12.44140625 26.984375 C-15.965248 23.20441443 -15.21954046 18.15556747 -15.25 13.3125 C-15.270625 12.49265625 -15.29125 11.6728125 -15.3125 10.828125 C-15.31765625 10.03921875 -15.3228125 9.2503125 -15.328125 8.4375 C-15.3374707 7.71820313 -15.34681641 6.99890625 -15.35644531 6.2578125 C-14.89806519 3.75618727 -13.94887364 2.89123174 -12 1.3125 C-8.2134381 -0.18634742 -4.02251777 0.05465377 0 0 Z " fill="#6252F6" transform="translate(108,333.6875)"/>
<path d="M0 0 C6.97191809 0.67628835 12.49240387 3.13635766 17.90625 7.59765625 C19.15234375 9.15234375 19.15234375 9.15234375 19.21484375 12.65234375 C18.25422442 18.26987852 15.70949821 23.72267971 12.15234375 28.15234375 C9.4296875 29.671875 9.4296875 29.671875 6.15234375 30.15234375 C3.30959591 29.23108288 1.02060243 28.30998058 -1.59765625 26.96484375 C-2.26925781 26.64708984 -2.94085938 26.32933594 -3.6328125 26.00195312 C-6.9920878 24.35597555 -8.73721276 23.31800899 -10.84765625 20.15234375 C-10.84765625 14.33617552 -6.74171232 0.55587057 0 0 Z " fill="#6353F8" transform="translate(121.84765625,238.84765625)"/>
<path d="M0 0 C2.30078125 2.328125 2.30078125 2.328125 4.3125 5.25 C4.98925781 6.20390625 5.66601562 7.1578125 6.36328125 8.140625 C7.96466182 10.9382636 8.80632041 12.79643482 9 16 C7.83099816 19.82256429 5.40151627 21.46611844 2.1875 23.6875 C1.33542969 24.28949219 0.48335937 24.89148438 -0.39453125 25.51171875 C-3.03624582 27.02070413 -4.98703935 27.69162651 -8 28 C-13.43078927 26.0504859 -16.41684747 20.92106905 -19 16 C-20.10727956 12.80902163 -20.24078222 11.55983994 -18.89453125 8.4296875 C-16.73761111 5.66349301 -14.63306474 4.02352444 -11.6875 2.125 C-10.30111328 1.20074219 -10.30111328 1.20074219 -8.88671875 0.2578125 C-5.29681453 -1.30639475 -3.68503023 -1.29420633 0 0 Z " fill="#6352F7" transform="translate(188,174)"/>
<path d="M0 0 C1.89288287 4.97008284 2.61722132 10.75361875 2 16 C-0.3583325 19.20059411 -2.17661235 20.28269187 -6 21 C-7.85077488 21.13968112 -9.70670894 21.21970137 -11.5625 21.25 C-12.51253906 21.27578125 -13.46257812 21.3015625 -14.44140625 21.328125 C-17 21 -17 21 -18.77734375 19.609375 C-21.82661869 15.59563291 -21.8763777 10.90626004 -22 6 C-21.10321771 2.68880385 -20.41075051 1.41075051 -18 -1 C-12.30253258 -2.78045857 -5.00434484 -3.33622989 0 0 Z " fill="#2C83F6" transform="translate(266,150)"/>
<path d="M0 0 C3.10354599 2.06903066 4.5785371 3.54595298 5.625 7.15625 C6.23078035 10.94237718 6.29559935 13.3201215 4.75 16.875 C0.23655676 22.35560965 0.23655676 22.35560965 -4.375 22.875 C-7.4537633 23.11451481 -8.89116199 23.04353521 -11.8125 21.875 C-15.5986708 18.62971074 -17.80064556 16.59483549 -18.4375 11.5 C-17.82086829 6.56694631 -15.81401528 3.17834607 -12 0 C-7.79914354 -1.40028549 -4.2744815 -1.06487083 0 0 Z " fill="#B0E5ED" transform="translate(306,289)"/>
<path d="M0 0 C6.3902439 2.7804878 6.3902439 2.7804878 8 6 C8.65817504 11.52867036 6.8410933 15.39618457 4 20 C2 22 2 22 -1.125 22.375 C-6.58606291 21.84651004 -11.09667899 19.90332101 -15 16 C-15.37927556 9.7925233 -13.45463445 5.02492284 -10 0 C-6.73003942 -1.63498029 -3.43487108 -0.81547299 0 0 Z " fill="#2D81F3" transform="translate(330,159)"/>
<path d="M0 0 C4.17168691 1.51697706 6.35032313 4.34406597 8.75 8 C9.9375 11.0625 9.9375 11.0625 9.75 14 C7.35605097 17.45792637 5.24743496 19.66837669 1.75 22 C-1.5625 22.5625 -1.5625 22.5625 -5.25 22 C-9.01782216 19.1636439 -10.91890203 15.84279482 -12.625 11.5 C-12.18264347 7.37133908 -11.44035132 6.80514053 -8.4375 4.125 C-3.21188341 0 -3.21188341 0 0 0 Z " fill="#2E80F2" transform="translate(379.25,197)"/>
<path d="M0 0 C2.67431489 1.81163267 2.95920359 2.87761077 4 6 C4.33592927 9.03988454 4.41886111 11.96608711 4 15 C1.06969336 18.23344181 -2.14618879 18.9223808 -6.4375 19.3125 C-10 19 -10 19 -12.375 17.625 C-14.84284867 13.63847522 -15.34067529 9.65331479 -15 5 C-11.3755721 -0.30719799 -5.98446783 -0.71213918 0 0 Z " fill="#11264B" transform="translate(407,252)"/>
<path d="M0 0 C0.33 0 0.66 0 1 0 C1 11.22 1 22.44 1 34 C-11.375 27.25 -11.375 27.25 -15 23 C-13.44037694 20.47734756 -11.87739923 17.95687678 -10.3125 15.4375 C-9.87744141 14.73302734 -9.44238281 14.02855469 -8.99414062 13.30273438 C-6.15566253 8.74014366 -3.22610388 4.29958853 0 0 Z " fill="#461E6E" transform="translate(599,403)"/>
<path d="M0 0 C5.32528606 5.04500784 11.35544405 13.38068237 12.375 20.6875 C11.79690809 24.25240012 10.01346729 25.28984744 7.26953125 27.44140625 C-5.01328168 35.87659103 -5.01328168 35.87659103 -11 35 C-16.87740313 30.63888023 -22.16138536 21.70388135 -23.75 14.6875 C-21.88789417 8.01495412 -13.44064315 4.69840622 -7.90234375 1.35546875 C-4.90867043 -0.04265325 -3.24787999 -0.48467506 0 0 Z M-7.1328125 4.40625 C-7.93847656 4.90253906 -8.74414062 5.39882813 -9.57421875 5.91015625 C-10.41597656 6.43480469 -11.25773438 6.95945312 -12.125 7.5 C-12.97449219 8.02464844 -13.82398438 8.54929687 -14.69921875 9.08984375 C-16.80196125 10.38929136 -18.90206042 11.6928174 -21 13 C-19.56952311 18.10884605 -17.28610306 22.01744261 -14.375 26.375 C-13.95476562 27.01566406 -13.53453125 27.65632813 -13.1015625 28.31640625 C-12.07370232 29.88155698 -11.03768114 31.44134314 -10 33 C-4.89115395 31.56952311 -0.98255739 29.28610306 3.375 26.375 C4.33599609 25.74464844 4.33599609 25.74464844 5.31640625 25.1015625 C6.88155698 24.07370232 8.44134314 23.03768114 10 22 C8.35554633 17.39731718 6.00052105 13.36169249 3.5 9.1875 C3.09652344 8.49462891 2.69304687 7.80175781 2.27734375 7.08789062 C1.24318829 5.35576555 0.12775368 3.67269436 -1 2 C-3.66433135 2 -4.87183664 3.00508186 -7.1328125 4.40625 Z " fill="#1F1B4D" transform="translate(144,432)"/>
<path d="M0 0 C2.87627494 1.19971801 5.51166598 2.72179682 8.1875 4.3125 C8.89841797 4.71662109 9.60933594 5.12074219 10.34179688 5.53710938 C16.76154698 9.25126395 16.76154698 9.25126395 19 12 C18.86816902 17.46439397 16.98711973 21.57364192 14.25 26.1875 C13.91484375 26.79013672 13.5796875 27.39277344 13.234375 28.01367188 C11.01046088 31.85076612 8.83590004 34.72316976 5 37 C0.19232127 37.04897466 -4.11660265 33.95333224 -8.1875 31.625 C-9.27321289 31.02558594 -9.27321289 31.02558594 -10.38085938 30.4140625 C-11.07373047 30.0221875 -11.76660156 29.6303125 -12.48046875 29.2265625 C-13.10848389 28.87158691 -13.73649902 28.51661133 -14.38354492 28.15087891 C-16 27 -16 27 -18 24 C-17.76763547 18.34124024 -15.97453222 14.46858024 -13.125 9.75 C-12.77308594 9.13898437 -12.42117187 8.52796875 -12.05859375 7.8984375 C-6.86519028 -0.94386282 -6.86519028 -0.94386282 0 0 Z M-5 2 C-6.3362853 3.52454868 -6.3362853 3.52454868 -7.4453125 5.578125 C-7.88230469 6.32707031 -8.31929687 7.07601562 -8.76953125 7.84765625 C-9.21683594 8.64042969 -9.66414062 9.43320312 -10.125 10.25 C-10.58003906 11.02730469 -11.03507813 11.80460938 -11.50390625 12.60546875 C-13.49346706 16.0591574 -15.17989873 19.07011873 -16 23 C-5.72320887 31.02588537 -5.72320887 31.02588537 6 35 C7.84015498 31.7121022 9.67095047 28.41908674 11.5 25.125 C12.02464844 24.18785156 12.54929688 23.25070312 13.08984375 22.28515625 C13.58613281 21.38925781 14.08242187 20.49335937 14.59375 19.5703125 C15.05458984 18.74289551 15.51542969 17.91547852 15.99023438 17.06298828 C17.14654317 15.08341625 17.14654317 15.08341625 17 13 C15.23971197 11.67149778 15.23971197 11.67149778 12.94921875 10.3984375 C12.10552734 9.90859375 11.26183594 9.41875 10.39257812 8.9140625 C9.49990234 8.40617188 8.60722656 7.89828125 7.6875 7.375 C6.80642578 6.859375 5.92535156 6.34375 5.01757812 5.8125 C0.30965186 2.89381882 0.30965186 2.89381882 -5 2 Z " fill="#2E184C" transform="translate(223,513)"/>
<path d="M0 0 C3 2 3 2 4 5 C4.22635971 8.10017698 4.18515463 11.20489136 4.1875 14.3125 C4.19974609 15.15490234 4.21199219 15.99730469 4.22460938 16.86523438 C4.23577752 21.62658592 3.95865182 25.56726167 2 30 C-1.63790035 33.63790035 -7.45805291 32.36952456 -12.375 32.375 C-13.52484375 32.39949219 -14.6746875 32.42398438 -15.859375 32.44921875 C-16.96539062 32.45308594 -18.07140625 32.45695313 -19.2109375 32.4609375 C-20.22462402 32.46915527 -21.23831055 32.47737305 -22.28271484 32.48583984 C-25.78212555 31.86015904 -26.93297779 30.86668196 -29 28 C-29.50170898 25.40625 -29.50170898 25.40625 -29.49609375 22.5 C-29.49673828 21.448125 -29.49738281 20.39625 -29.49804688 19.3125 C-29.47806641 18.219375 -29.45808594 17.12625 -29.4375 16 C-29.44458984 14.906875 -29.45167969 13.81375 -29.45898438 12.6875 C-29.38583805 3.5048228 -29.38583805 3.5048228 -26 0 C-18.31697615 -2.56100795 -7.91273024 -1.43867822 0 0 Z M-26 2 C-26 11.24 -26 20.48 -26 30 C-17.09 30 -8.18 30 1 30 C1 20.76 1 11.52 1 2 C-7.91 2 -16.82 2 -26 2 Z " fill="#2E184B" transform="translate(362,549)"/>
<path d="M0 0 C0.7115625 -0.02900391 1.423125 -0.05800781 2.15625 -0.08789062 C5.63493737 -0.1300762 7.61189601 0.02822 10.453125 2.109375 C12.72176001 5.34046123 12.84144912 8.48825281 13 12.3125 C13.06316406 13.24449219 13.12632813 14.17648437 13.19140625 15.13671875 C13.49982898 22.58860976 13.49982898 22.58860976 11.1875 25.9375 C6.95083235 28.60054823 2.90744722 28.52780029 -1.9375 28.5625 C-2.65357422 28.583125 -3.36964844 28.60375 -4.10742188 28.625 C-7.30746233 28.64872597 -9.6042001 28.52781514 -12.44140625 26.984375 C-15.965248 23.20441443 -15.21954046 18.15556747 -15.25 13.3125 C-15.270625 12.49265625 -15.29125 11.6728125 -15.3125 10.828125 C-15.31765625 10.03921875 -15.3228125 9.2503125 -15.328125 8.4375 C-15.3374707 7.71820313 -15.34681641 6.99890625 -15.35644531 6.2578125 C-14.89806519 3.75618727 -13.94887364 2.89123174 -12 1.3125 C-8.2134381 -0.18634742 -4.02251777 0.05465377 0 0 Z M-12 4.3125 C-12.02743793 6.3124203 -12.04659055 8.31245477 -12.0625 10.3125 C-12.07410156 11.42625 -12.08570312 12.54 -12.09765625 13.6875 C-11.99125577 17.63708564 -11.54463788 21.40139965 -11 25.3125 C-8.06243881 25.3394501 -5.12512445 25.35931474 -2.1875 25.375 C-0.93743164 25.38756836 -0.93743164 25.38756836 0.33789062 25.40039062 C1.54155273 25.40522461 1.54155273 25.40522461 2.76953125 25.41015625 C3.50792236 25.41539307 4.24631348 25.42062988 5.00708008 25.42602539 C7.21057409 25.38773213 7.21057409 25.38773213 10 24.3125 C10.10808032 17.21522572 9.93854006 10.35155044 9 3.3125 C1.90565767 3.21516908 -4.98194143 3.21162807 -12 4.3125 Z " fill="#1C1A47" transform="translate(108,333.6875)"/>
<path d="M0 0 C4.33746273 0.67305456 6.47166494 1.48607555 9.625 4.5625 C10.25285291 8.9574704 10.05483224 11.37414028 8.5625 15.5 C6.625 17.5625 6.625 17.5625 3.3125 18.5625 C-0.8365584 18.5625 -2.89172693 17.74967146 -6.375 15.5625 C-7.035 14.9025 -7.695 14.2425 -8.375 13.5625 C-8.22975964 9.13266905 -7.86059733 6.45898739 -5.75 2.5625 C-3.375 0.5625 -3.375 0.5625 0 0 Z " fill="#06384E" transform="translate(396.375,304.4375)"/>
<path d="M0 0 C6.97191809 0.67628835 12.49240387 3.13635766 17.90625 7.59765625 C19.15234375 9.15234375 19.15234375 9.15234375 19.21484375 12.65234375 C18.25422442 18.26987852 15.70949821 23.72267971 12.15234375 28.15234375 C9.4296875 29.671875 9.4296875 29.671875 6.15234375 30.15234375 C3.30959591 29.23108288 1.02060243 28.30998058 -1.59765625 26.96484375 C-2.26925781 26.64708984 -2.94085938 26.32933594 -3.6328125 26.00195312 C-6.9920878 24.35597555 -8.73721276 23.31800899 -10.84765625 20.15234375 C-10.84765625 14.33617552 -6.74171232 0.55587057 0 0 Z M-0.84765625 2.15234375 C-3.48765625 7.76234375 -6.12765625 13.37234375 -8.84765625 19.15234375 C-5.22796875 21.13234375 -5.22796875 21.13234375 -1.53515625 23.15234375 C-0.40146606 23.77882813 -0.40146606 23.77882813 0.75512695 24.41796875 C4.7259005 26.58951019 4.7259005 26.58951019 9.15234375 27.15234375 C10.35484533 24.90927347 11.53925995 22.65946465 12.71484375 20.40234375 C13.22821289 19.45101563 13.22821289 19.45101563 13.75195312 18.48046875 C15.04567497 15.97143244 16.11070987 13.77466076 16.30078125 10.93359375 C14.38787403 7.96663561 11.32046227 6.8366532 8.21484375 5.40234375 C7.56837891 5.08652344 6.92191406 4.77070313 6.25585938 4.4453125 C2.8565531 2.72165835 2.8565531 2.72165835 -0.84765625 2.15234375 Z " fill="#1D1A49" transform="translate(121.84765625,238.84765625)"/>
<path d="M0 0 C2.95576896 1.71205632 3.89112456 3.14078021 5.21875 6.28515625 C5.69365813 10.15226529 5.77462025 12.34259365 3.78125 15.72265625 C-0.00171493 18.02934218 -3.46357885 18.08138078 -7.78125 17.28515625 C-11.21135189 14.51894505 -11.63579648 10.40878892 -12.78125 6.28515625 C-13.44125 5.62515625 -14.10125 4.96515625 -14.78125 4.28515625 C-12.89539655 3.38884951 -10.99703923 2.5188175 -9.09375 1.66015625 C-8.03800781 1.17289062 -6.98226563 0.685625 -5.89453125 0.18359375 C-2.78125 -0.71484375 -2.78125 -0.71484375 0 0 Z " fill="#083046" transform="translate(335.78125,363.71484375)"/>
<path d="M0 0 C2.30078125 2.328125 2.30078125 2.328125 4.3125 5.25 C4.98925781 6.20390625 5.66601562 7.1578125 6.36328125 8.140625 C7.96466182 10.9382636 8.80632041 12.79643482 9 16 C7.83099816 19.82256429 5.40151627 21.46611844 2.1875 23.6875 C1.33542969 24.28949219 0.48335937 24.89148438 -0.39453125 25.51171875 C-3.03624582 27.02070413 -4.98703935 27.69162651 -8 28 C-13.43078927 26.0504859 -16.41684747 20.92106905 -19 16 C-20.10727956 12.80902163 -20.24078222 11.55983994 -18.89453125 8.4296875 C-16.73761111 5.66349301 -14.63306474 4.02352444 -11.6875 2.125 C-10.30111328 1.20074219 -10.30111328 1.20074219 -8.88671875 0.2578125 C-5.29681453 -1.30639475 -3.68503023 -1.29420633 0 0 Z M-10.5625 5.5 C-11.17802734 5.92925781 -11.79355469 6.35851562 -12.42773438 6.80078125 C-13.95327372 7.86511103 -15.47682253 8.93229284 -17 10 C-16.35736133 13.66732467 -14.7740488 16.19389854 -12.6875 19.25 C-12.09324219 20.14203125 -11.49898437 21.0340625 -10.88671875 21.953125 C-10.26410156 22.62859375 -9.64148438 23.3040625 -9 24 C-4.46789014 24 -3.40195502 23.24836673 0.1875 20.6875 C1.06792969 20.07261719 1.94835937 19.45773438 2.85546875 18.82421875 C5.25306344 17.10367332 5.25306344 17.10367332 6 14 C4.61993656 11.64214692 3.22527227 9.51049301 1.625 7.3125 C1.19960937 6.70599609 0.77421875 6.09949219 0.3359375 5.47460938 C-0.74202125 3.95830347 -1.86730791 2.47586832 -3 1 C-5.51139742 1 -8.47948931 4.0381611 -10.5625 5.5 Z " fill="#1B1945" transform="translate(188,174)"/>
<path d="M0 0 C3.70678284 1.98577652 5.01822037 2.98532846 6.5 6.875 C6.5 10.48681438 5.54618735 11.81561626 3.3125 14.6875 C0.5 16.875 0.5 16.875 -2.5 17.4375 C-6.15907504 16.75142343 -7.85167676 15.44765686 -10.5 12.875 C-11.94430855 9.98638291 -11.87688506 8.07852299 -11.5 4.875 C-7.90895863 0.50751725 -5.68697629 -1.82795667 0 0 Z " fill="#073950" transform="translate(373.5,345.125)"/>
<path d="M0 0 C1.89288287 4.97008284 2.61722132 10.75361875 2 16 C-0.3583325 19.20059411 -2.17661235 20.28269187 -6 21 C-7.85077488 21.13968112 -9.70670894 21.21970137 -11.5625 21.25 C-12.51253906 21.27578125 -13.46257812 21.3015625 -14.44140625 21.328125 C-17 21 -17 21 -18.77734375 19.609375 C-21.82661869 15.59563291 -21.8763777 10.90626004 -22 6 C-21.10321771 2.68880385 -20.41075051 1.41075051 -18 -1 C-12.30253258 -2.78045857 -5.00434484 -3.33622989 0 0 Z M-18 2 C-18.09688221 7.44693314 -18.12862175 12.63904667 -17 18 C-11.84828377 18.09038099 -7.08086796 17.84681133 -2 17 C-1.97287847 15.083412 -1.95354903 13.1667127 -1.9375 11.25 C-1.92589844 10.18265625 -1.91429687 9.1153125 -1.90234375 8.015625 C-1.98489913 5.46631499 -2.25382442 3.42066409 -3 1 C-4.74991334 0.97284617 -6.49994945 0.95353449 -8.25 0.9375 C-9.22453125 0.92589844 -10.1990625 0.91429687 -11.203125 0.90234375 C-13.65758678 0.98804423 -15.66168914 1.29293934 -18 2 Z " fill="#15305C" transform="translate(266,150)"/>
<path d="M0 0 C4.08747251 3.53435123 6.27936509 7.72558879 8.75 12.4375 C9.16121094 13.18837891 9.57242188 13.93925781 9.99609375 14.71289062 C13.98143869 22.24002882 13.98143869 22.24002882 13 26 C9.56298668 29.39817701 5.34904129 31.76334535 1.1875 34.1875 C0.60935547 34.54263672 0.03121094 34.89777344 -0.56445312 35.26367188 C-5.05443928 37.8782826 -8.75871699 39.07002742 -14 39 C-16.19921875 37.09765625 -16.19921875 37.09765625 -18 34 C-18.57355225 33.03682861 -18.57355225 33.03682861 -19.15869141 32.05419922 C-20.42929585 29.87394039 -21.62552392 27.66427478 -22.8125 25.4375 C-23.44188477 24.30538086 -23.44188477 24.30538086 -24.08398438 23.15039062 C-24.47521484 22.41884766 -24.86644531 21.68730469 -25.26953125 20.93359375 C-25.80477417 19.9444397 -25.80477417 19.9444397 -26.35083008 18.93530273 C-27.14128055 16.57881501 -26.80234961 15.3142842 -26 13 C-24.32666842 16.12147545 -22.66248284 19.24773498 -21 22.375 C-20.52304687 23.26445313 -20.04609375 24.15390625 -19.5546875 25.0703125 C-18.87792969 26.34648438 -18.87792969 26.34648438 -18.1875 27.6484375 C-17.76855469 28.43395996 -17.34960938 29.21948242 -16.91796875 30.02880859 C-16 32 -16 32 -16 34 C-11.91318777 35.28200957 -9.51133854 35.04268091 -5.765625 33.19921875 C-4.25128097 32.37861871 -2.74616218 31.54080004 -1.25 30.6875 C-0.09951172 30.06198242 -0.09951172 30.06198242 1.07421875 29.42382812 C5.31791397 27.0985734 5.31791397 27.0985734 9 24 C8.77518452 18.17655382 6.76978615 14.10364436 3.9375 9.1875 C0 2.22115385 0 2.22115385 0 0 Z " fill="#381B59" transform="translate(496,511)"/>
<path d="M0 0 C6.3902439 2.7804878 6.3902439 2.7804878 8 6 C8.65817504 11.52867036 6.8410933 15.39618457 4 20 C2 22 2 22 -1.125 22.375 C-6.58606291 21.84651004 -11.09667899 19.90332101 -15 16 C-15.37927556 9.7925233 -13.45463445 5.02492284 -10 0 C-6.73003942 -1.63498029 -3.43487108 -0.81547299 0 0 Z M-8 2 C-8.70429659 3.38743406 -9.38777598 4.78544635 -10.0625 6.1875 C-10.44535156 6.96480469 -10.82820313 7.74210938 -11.22265625 8.54296875 C-12.17379938 11.54934576 -12.16348577 13.0668426 -11 16 C-8.78520744 17.47248559 -8.78520744 17.47248559 -6.0625 18.3125 C-4.71865234 18.80169922 -4.71865234 18.80169922 -3.34765625 19.30078125 C-1.0887968 20.09514847 -1.0887968 20.09514847 1 20 C1.67528223 18.42032193 2.33989694 16.83608097 3 15.25 C3.556875 13.92742187 3.556875 13.92742187 4.125 12.578125 C5.21425883 9.82246229 5.21425883 9.82246229 5 6 C3.58774074 5.32404685 2.16997095 4.65959941 0.75 4 C-0.03890625 3.62875 -0.8278125 3.2575 -1.640625 2.875 C-4.2056657 1.76818748 -4.2056657 1.76818748 -8 2 Z " fill="#142D56" transform="translate(330,159)"/>
<path d="M0 0 C4.17168691 1.51697706 6.35032313 4.34406597 8.75 8 C9.9375 11.0625 9.9375 11.0625 9.75 14 C7.35605097 17.45792637 5.24743496 19.66837669 1.75 22 C-1.5625 22.5625 -1.5625 22.5625 -5.25 22 C-9.01782216 19.1636439 -10.91890203 15.84279482 -12.625 11.5 C-12.18264347 7.37133908 -11.44035132 6.80514053 -8.4375 4.125 C-3.21188341 0 -3.21188341 0 0 0 Z M-6.4375 6.5 C-7.51064453 7.47453125 -7.51064453 7.47453125 -8.60546875 8.46875 C-9.14816406 8.9740625 -9.69085938 9.479375 -10.25 10 C-9.32265428 11.48555383 -8.38275187 12.96327506 -7.4375 14.4375 C-6.91542969 15.26121094 -6.39335937 16.08492187 -5.85546875 16.93359375 C-4.34039287 19.27827786 -4.34039287 19.27827786 -1.25 20 C1.11056405 18.56989721 1.11056405 18.56989721 3.4375 16.5625 C4.24574219 15.90378906 5.05398438 15.24507812 5.88671875 14.56640625 C6.50160156 14.04949219 7.11648438 13.53257812 7.75 13 C4.9463202 7.44944232 4.9463202 7.44944232 0.75 3 C-3.02910478 3 -3.71106101 3.99703962 -6.4375 6.5 Z " fill="#122A52" transform="translate(379.25,197)"/>
<path d="M0 0 C0.33 3.96 0.66 7.92 1 12 C-2.63 12.33 -6.26 12.66 -10 13 C-11.59138085 8.82262526 -12.21278058 5.46839215 -12 1 C-8.0186217 -0.3271261 -4.14954773 -0.06915913 0 0 Z " fill="#2D7EEF" transform="translate(407,255)"/>
<path d="M0 0 C1.875 1.125 1.875 1.125 3 3 C2.87062487 6.1050032 2.43847574 8.24484734 0.875 10.9375 C-2.16507898 12.66021142 -4.71003847 11.73110256 -8 11 C-9 10 -9 10 -9.09765625 8.15234375 C-9.06510417 6.1015625 -9.03255208 4.05078125 -9 2 C-5.88578592 0.1545398 -3.61678684 -0.46369062 0 0 Z " fill="#1F5368" transform="translate(251,322)"/>
<path d="M0 0 C7.625 0.875 7.625 0.875 11 2 C10.39009109 5.55780196 9.4216319 8.6828589 8 12 C4.53058454 11.54177532 1.32604951 11.10868317 -2 10 C-1.54177532 6.53058454 -1.10868317 3.32604951 0 0 Z " fill="#00BFEE" transform="translate(393,308)"/>
<path d="M0 0 C0.66 0.66 1.32 1.32 2 2 C1.8125 5.5 1.8125 5.5 1 9 C-2 11 -2 11 -5.0625 10.8125 C-8 10 -8 10 -10 7 C-10.35242362 4.18061103 -10.34645957 2.61139923 -8.9375 0.125 C-5.82785011 -1.68060316 -3.38260527 -0.79952488 0 0 Z " fill="#FBFEFE" transform="translate(304,295)"/>
<path d="M0 0 C0 2.64 0 5.28 0 8 C-0.66 8 -1.32 8 -2 8 C-2 8.66 -2 9.32 -2 10 C-3.47968324 9.85950482 -4.95874516 9.71245174 -6.4375 9.5625 C-7.26121094 9.48128906 -8.08492188 9.40007812 -8.93359375 9.31640625 C-11 9 -11 9 -12 8 C-12.04092937 5.66702567 -12.04241723 3.33294775 -12 1 C-8.00439392 -1.83022097 -4.57262677 -0.76210446 0 0 Z " fill="#065C77" transform="translate(269,350)"/>
<path d="M0 0 C0.33 0 0.66 0 1 0 C1.33 6.93 1.66 13.86 2 21 C11.9 20.505 11.9 20.505 22 20 C22 20.99 22 21.98 22 23 C18.32341276 24.22552908 14.89248884 24.22256946 11.0625 24.25 C10.34642578 24.270625 9.63035156 24.29125 8.89257812 24.3125 C5.82296311 24.33525896 3.50280622 24.28006507 0.79003906 22.76904297 C-1 21 -1 21 -1.4699707 18.83935547 C-1.44809692 17.61563232 -1.44809692 17.61563232 -1.42578125 16.3671875 C-1.41740234 15.47902344 -1.40902344 14.59085937 -1.40039062 13.67578125 C-1.37138672 12.75152344 -1.34238281 11.82726562 -1.3125 10.875 C-1.30283203 9.94300781 -1.29316406 9.01101563 -1.28320312 8.05078125 C-1.16798899 1.16798899 -1.16798899 1.16798899 0 0 Z " fill="#211E54" transform="translate(95,338)"/>
<path d="M0 0 C1.25 2.5 1.25 2.5 2 6 C1.00060096 8.87456013 -0.41021106 11.41166594 -2 14 C-2.33 13.01 -2.66 12.02 -3 11 C-4.64551962 10.28272222 -6.31422289 9.61674772 -8 9 C-10 7 -10 7 -10.3125 4.5625 C-10 2 -10 2 -8.9375 0.125 C-5.88430685 -1.64782183 -3.33588292 -0.69235306 0 0 Z " fill="#1F5F74" transform="translate(262,270)"/>
<path d="M0 0 C0.99 0.33 1.98 0.66 3 1 C-1.75 5 -1.75 5 -4 5 C-1.34151874 10.00099548 1.25876024 14.7045025 5 19 C8.62276315 17.6744419 11.63505348 16.05653045 14.8125 13.875 C15.60269531 13.33617187 16.39289063 12.79734375 17.20703125 12.2421875 C18.09455078 11.62730469 18.09455078 11.62730469 19 11 C18.34 12.32 17.68 13.64 17 15 C16.34 15 15.68 15 15 15 C14.690625 16.1446875 14.690625 16.1446875 14.375 17.3125 C12.51565344 20.94667737 10.84368136 21.74341186 7 23 C2.79507614 22.41131066 1.37235594 21.44094782 -1.375 18.1875 C-2.9791273 15.04094261 -3.40603114 13.45126468 -3 10 C-3.66 10 -4.32 10 -5 10 C-5.3125 7.25 -5.3125 7.25 -5 4 C-2.6875 1.5625 -2.6875 1.5625 0 0 Z " fill="#201D52" transform="translate(175,179)"/>
<path d="M0 0 C1.98 1.65 3.96 3.3 6 5 C5.65120368 8.25543229 4.97866739 9.01873107 2.4375 11.25 C1.633125 11.8275 0.82875 12.405 0 13 C-4.8 9.55384615 -4.8 9.55384615 -5.8125 6.75 C-5.874375 6.1725 -5.93625 5.595 -6 5 C-4.02 3.35 -2.04 1.7 0 0 Z " fill="#00BFEC" transform="translate(371,347)"/>
<path d="M0 0 C1.175625 0.0825 2.35125 0.165 3.5625 0.25 C5.7235211 3.49153166 6.20497553 4.48692901 5.5625 8.25 C3.0625 10.5625 3.0625 10.5625 0.5625 12.25 C-4.34155117 8.0815565 -4.34155117 8.0815565 -4.8125 4 C-4.26246926 -0.03355874 -4.20188446 0.3055916 0 0 Z " fill="#266075" transform="translate(246.4375,293.75)"/>
<path d="M0 0 C0.66 0 1.32 0 2 0 C2.15855469 0.87140625 2.31710938 1.7428125 2.48046875 2.640625 C4.75107067 14.23198506 8.40698473 24.03741486 14.86328125 33.94140625 C16 36 16 36 16 39 C7.03519636 29.81654262 -0.08320516 15.84935483 -0.1875 2.8125 C-0.125625 1.884375 -0.06375 0.95625 0 0 Z " fill="#0A1A2E" transform="translate(227,307)"/>
<path d="M0 0 C2.64 0 5.28 0 8 0 C8.33 2.64 8.66 5.28 9 8 C6.36 8.33 3.72 8.66 1 9 C-0.61949011 6.42786866 -1.04408751 5.32330841 -0.625 2.25 C-0.41875 1.5075 -0.2125 0.765 0 0 Z " fill="#01BBE6" transform="translate(329,369)"/>
<path d="M0 0 C0.85894524 2.41041508 1.18316393 3.55706031 0.1875 5.96484375 C-0.204375 6.61582031 -0.59625 7.26679688 -1 7.9375 C-2.75965522 11.18136004 -2.75965522 11.18136004 -2.8125 14.875 C-1.23619029 18.99765617 0.10564186 19.75222005 4.125 21.625 C8.74758972 23.68015397 11.99511227 24.55609864 17 24 C16 26 16 26 13.91796875 26.828125 C9.84634407 27.06795296 6.87237853 25.51094864 3.3125 23.75 C2.63638672 23.43675781 1.96027344 23.12351562 1.26367188 22.80078125 C-2.13038646 21.17298412 -3.87384895 20.18922658 -6 17 C-5.86827152 10.54530469 -3.04513803 5.58462584 0 0 Z " fill="#16163B" transform="translate(117,242)"/>
<path d="M0 0 C1.485 0.99 1.485 0.99 3 2 C3.37231445 3.87597656 3.37231445 3.87597656 3.36328125 6.140625 C3.36263672 6.96433594 3.36199219 7.78804687 3.36132812 8.63671875 C3.34521484 9.49910156 3.32910156 10.36148438 3.3125 11.25 C3.31572266 12.09691406 3.31894531 12.94382812 3.32226562 13.81640625 C3.2813756 18.59682183 2.84029937 22.51289556 1 27 C0.67 27 0.34 27 0 27 C0 18.09 0 9.18 0 0 Z " fill="#2A1646" transform="translate(363,552)"/>
<path d="M0 0 C0.33 0 0.66 0 1 0 C1 1.65 1 3.3 1 5 C1.66 5.103125 2.32 5.20625 3 5.3125 C6.20529581 6.04704696 9.09309348 7.14291155 12.1328125 8.37890625 C14.14647797 9.15781609 14.14647797 9.15781609 17 9 C19.20142332 6.5609294 19.20142332 6.5609294 21 4 C20.64987213 6.59094622 20.26229035 8.5774211 18.875 10.8125 C15.80739394 12.75531717 13.56365907 12.40894448 10 12 C6.18182756 10.53200229 2.90295823 8.90295823 0 6 C-0.125 2.875 -0.125 2.875 0 0 Z " fill="#102142" transform="translate(315,169)"/>
<path d="M0 0 C0.66 0 1.32 0 2 0 C2.30268153 5.14558605 1.8378619 7.74320715 -1 12 C-1.71143088 13.98451771 -2.38991336 15.98202112 -3 18 C-8.47808349 19.74302657 -11.3098387 18.65363772 -16.4375 16.0625 C-18.30096642 15.05874324 -20.1583733 14.04328606 -22 13 C-21.67 12.34 -21.34 11.68 -21 11 C-16.05 13.31 -11.1 15.62 -6 18 C-5.34 16.02 -4.68 14.04 -4 12 C-2.99435146 9.93731941 -1.91064185 7.93977971 -0.8046875 5.9296875 C0.25658713 3.73314666 0.25658713 3.73314666 0 0 Z " fill="#2B276C" transform="translate(137,248)"/>
<path d="M0 0 C2.31 0.33 4.62 0.66 7 1 C8.2077558 4.62326739 7.54311128 5.64146369 6 9 C0.125 8.125 0.125 8.125 -1 7 C-0.71269945 4.66055264 -0.38063221 2.3260857 0 0 Z " fill="#01BDE8" transform="translate(291,368)"/>
<path d="M0 0 C0.66 0.99 1.32 1.98 2 3 C1.67 3.99 1.34 4.98 1 6 C0.67 5.34 0.34 4.68 0 4 C-2.3140622 3.26924352 -4.64828869 2.59861742 -7 2 C-7 4.31 -7 6.62 -7 9 C-5.02 9.66 -3.04 10.32 -1 11 C-1 11.33 -1 11.66 -1 12 C-6.36842105 12.35789474 -6.36842105 12.35789474 -8.875 10.9375 C-10.64273274 7.8930714 -10.36823916 5.4368988 -10 2 C-7.71139092 -2.30797003 -4.19123206 -1.06685907 0 0 Z " fill="#074962" transform="translate(298,366)"/>
<path d="M0 0 C1.875 0.1875 1.875 0.1875 4 1 C4.268125 1.804375 4.53625 2.60875 4.8125 3.4375 C5.204375 4.283125 5.59625 5.12875 6 6 C9.53514293 7.37967524 9.53514293 7.37967524 13 8 C13 7.34 13 6.68 13 6 C14.32 6 15.64 6 17 6 C16.3125 7.9375 16.3125 7.9375 15 10 C11.60913353 11.45322849 9.93932725 10.98221661 6.375 9.9375 C2.49368465 7.70933749 1.50113327 6.15019198 0 2 C0 1.34 0 0.68 0 0 Z " fill="#092236" transform="translate(284,370)"/>
<path d="M0 0 C0.33 0 0.66 0 1 0 C1.33 5.28 1.66 10.56 2 16 C6.95 15.67 11.9 15.34 17 15 C16.67 15.66 16.34 16.32 16 17 C10.72777446 18.3518527 5.40199758 18.07299997 0 18 C0 12.06 0 6.12 0 0 Z " fill="#173668" transform="translate(247,152)"/>
<path d="M0 0 C2.67431489 1.81163267 2.95920359 2.87761077 4 6 C4.06740865 7.56118428 4.08514456 9.1250252 4.0625 10.6875 C4.05347656 11.49574219 4.04445313 12.30398438 4.03515625 13.13671875 C4.02355469 13.75160156 4.01195312 14.36648438 4 15 C3.67 15 3.34 15 3 15 C2.67 11.7 2.34 8.4 2 5 C1.34 5 0.68 5 0 5 C0 4.34 0 3.68 0 3 C-5.94 3.495 -5.94 3.495 -12 4 C-11.67 3.01 -11.34 2.02 -11 1 C-7.25111416 -0.24962861 -3.92256117 -0.46677659 0 0 Z " fill="#102141" transform="translate(407,252)"/>
<path d="M0 0 C1.52519276 0.08937803 3.04681929 0.24537146 4.5625 0.4375 C5.80193359 0.59025391 5.80193359 0.59025391 7.06640625 0.74609375 C7.70449219 0.82988281 8.34257812 0.91367187 9 1 C8.01 1.33 7.02 1.66 6 2 C6.020625 2.804375 6.04125 3.60875 6.0625 4.4375 C6 7 6 7 5 8 C3.33382885 8.04063832 1.66611905 8.042721 0 8 C-0.38063221 5.6739143 -0.71269945 3.33944736 -1 1 C-0.67 0.67 -0.34 0.34 0 0 Z " fill="#25768B" transform="translate(275,258)"/>
<path d="M0 0 C0 0.33 0 0.66 0 1 C-0.99902344 1.13277344 -1.99804688 1.26554688 -3.02734375 1.40234375 C-4.31769531 1.57894531 -5.60804688 1.75554687 -6.9375 1.9375 C-8.22527344 2.11152344 -9.51304687 2.28554687 -10.83984375 2.46484375 C-13.85466313 2.66162423 -13.85466313 2.66162423 -15 4 C-15.23678716 6.69235776 -15.42198025 9.36498156 -15.5625 12.0625 C-15.60568359 12.82111328 -15.64886719 13.57972656 -15.69335938 14.36132812 C-15.79973633 16.24065438 -15.90039934 18.12030244 -16 20 C-19.26340104 16.73659896 -18.95074069 12.46852321 -19 8 C-18.10321771 4.68880385 -17.41075051 3.41075051 -15 1 C-10.1635091 -0.51140341 -5.01191478 -0.08758686 0 0 Z " fill="#0F1E3B" transform="translate(263,148)"/>
<path d="M0 0 C0.66 0 1.32 0 2 0 C3.17051429 2.34102859 3.1992246 3.89352953 3.25 6.5 C3.28867187 7.69109375 3.28867187 7.69109375 3.328125 8.90625 C3.21984375 9.5971875 3.1115625 10.288125 3 11 C-0.20380017 13.13586678 -1.01939967 13.23132175 -4.6875 13.125 C-5.49574219 13.10695313 -6.30398438 13.08890625 -7.13671875 13.0703125 C-8.05904297 13.03550781 -8.05904297 13.03550781 -9 13 C-9.33 12.34 -9.66 11.68 -10 11 C-4.555 10.505 -4.555 10.505 1 10 C0.67 6.7 0.34 3.4 0 0 Z " fill="#142D58" transform="translate(407,257)"/>
<path d="M0 0 C2 2 2 2 2.125 5.625 C2.08375 6.73875 2.0425 7.8525 2 9 C1.401875 8.21625 0.80375 7.4325 0.1875 6.625 C-1.91085249 3.85425677 -1.91085249 3.85425677 -5 2 C-7.43929746 3.92576115 -9.80090595 5.80090595 -12 8 C-11.65447612 5.44312331 -11.24912987 3.42498625 -9.9375 1.1875 C-6.67077511 -0.81468623 -3.77716356 -0.29977489 0 0 Z " fill="#07374E" transform="translate(376,346)"/>
<path d="M0 0 C1.65 1.32 3.3 2.64 5 4 C4.34 5.32 3.68 6.64 3 8 C1.68 8 0.36 8 -1 8 C-2.75 6 -2.75 6 -4 4 C-2.68 2.68 -1.36 1.36 0 0 Z " fill="#01C3ED" transform="translate(263,350)"/>
<path d="M0 0 C4.03176607 3.61468682 6.63163047 7.29862345 7.375 12.75 C7.25125 13.4925 7.1275 14.235 7 15 C6.01 15.66 5.02 16.32 4 17 C4.061875 16.319375 4.12375 15.63875 4.1875 14.9375 C3.94723707 11.17338073 2.53080274 8.42899813 1 5 C0.3125 2.0625 0.3125 2.0625 0 0 Z " fill="#1B1945" transform="translate(149,440)"/>
<path d="M0 0 C-0.33 0.66 -0.66 1.32 -1 2 C-2.65 2 -4.3 2 -6 2 C-5.9071875 2.71542969 -5.814375 3.43085938 -5.71875 4.16796875 C-6.10710631 8.07850104 -7.81043601 9.51087084 -10.5 12.3125 C-11.3353125 13.19550781 -12.170625 14.07851563 -13.03125 14.98828125 C-14.00578125 15.98408203 -14.00578125 15.98408203 -15 17 C-15 16.01 -15 15.02 -15 14 C-14.195625 13.2575 -13.39125 12.515 -12.5625 11.75 C-9.46753345 8.42857248 -9.41712376 6.42151182 -9 2 C-5.96271914 -1.03728086 -4.06215635 -1.35405212 0 0 Z " fill="#0F576B" transform="translate(281,257)"/>
<path d="M0 0 C0.33 1.98 0.66 3.96 1 6 C-0.9914056 6.38133299 -2.99279077 6.71325582 -5 7 C-6 6 -6 6 -6.0625 3.4375 C-6.041875 2.633125 -6.02125 1.82875 -6 1 C-3 0 -3 0 0 0 Z " fill="#87D4E6" transform="translate(250,324)"/>
<path d="M0 0 C2.46800047 1.15173355 4.04783565 2.04783565 6 4 C5.74525692 8.58537549 5.14031285 11.58661647 2 15 C1.82057837 11.05272412 1.90649311 8.4019487 4 5 C3.01 4.67 2.02 4.34 1 4 C0.3125 1.9375 0.3125 1.9375 0 0 Z " fill="#2A1747" transform="translate(236,521)"/>
<path d="M0 0 C0.8971875 0.5259375 0.8971875 0.5259375 1.8125 1.0625 C0.141875 1.495625 0.141875 1.495625 -1.5625 1.9375 C-5.19041092 2.75491329 -5.19041092 2.75491329 -7.1875 5.0625 C-7.21003443 7.51213177 -7.21003443 7.51213177 -6.8125 10.1875 C-6.70164062 11.09757812 -6.59078125 12.00765625 -6.4765625 12.9453125 C-6.33347656 13.99332031 -6.33347656 13.99332031 -6.1875 15.0625 C-8.92456304 12.83863628 -10.07693111 11.6399153 -10.75 8.125 C-10.00344757 4.0604368 -8.34763494 2.63470286 -5.1875 0.0625 C-2.1875 -0.9375 -2.1875 -0.9375 0 0 Z " fill="#082235" transform="translate(372.1875,344.9375)"/>
<path d="M0 0 C0.33 0 0.66 0 1 0 C1.48756219 6.33830846 1.48756219 6.33830846 -0.75 9.375 C-4.60075239 12.15609895 -8.08428301 12.11804425 -12.75 12.0625 C-13.73484375 12.05347656 -14.7196875 12.04445312 -15.734375 12.03515625 C-16.48203125 12.02355469 -17.2296875 12.01195312 -18 12 C-18 11.67 -18 11.34 -18 11 C-17.02417969 10.89042969 -16.04835937 10.78085938 -15.04296875 10.66796875 C-13.77066406 10.50941406 -12.49835938 10.35085937 -11.1875 10.1875 C-9.92292969 10.03667969 -8.65835937 9.88585937 -7.35546875 9.73046875 C-4.06354541 9.01383352 -2.84672978 8.74371281 -1 6 C-0.2730774 2.89160979 -0.2730774 2.89160979 0 0 Z " fill="#0D1A34" transform="translate(267,159)"/>
<path d="M0 0 C4.5929708 3.52127761 5.11941917 7.57747597 6 13 C3.45868642 10.69716746 1.92889705 8.32686207 0.3125 5.3125 C-0.12449219 4.50425781 -0.56148437 3.69601562 -1.01171875 2.86328125 C-1.33785156 2.24839844 -1.66398438 1.63351562 -2 1 C-1.34 0.67 -0.68 0.34 0 0 Z " fill="#24205C" transform="translate(145,434)"/>
<path d="M0 0 C2.17503665 1.00983845 4.03589517 2.02778981 5.9375 3.5 C8.19232577 5.13987329 10.38678522 6.05633911 13 7 C12.67 7.66 12.34 8.32 12 9 C6.52386331 7.81887248 3.6905212 6.47335903 0 2 C0 1.34 0 0.68 0 0 Z " fill="#0A1D30" transform="translate(254,356)"/>
<path d="M0 0 C0.99 0.33 1.98 0.66 3 1 C0.36 5.62 -2.28 10.24 -5 15 C-5.33 14.34 -5.66 13.68 -6 13 C-5.03685937 10.98199105 -4.03041427 8.98450156 -3 7 C-2.32204472 5.00379834 -1.65266469 3.00461299 -1 1 C-0.67 0.67 -0.34 0.34 0 0 Z " fill="#361C5A" transform="translate(215,515)"/>
<path d="M0 0 C1.65 0.33 3.3 0.66 5 1 C5 2.65 5 4.3 5 6 C2.03 5.505 2.03 5.505 -1 5 C-0.67 3.35 -0.34 1.7 0 0 Z " fill="#84D5E7" transform="translate(244,296)"/>
<path d="M0 0 C1.65 0.99 3.3 1.98 5 3 C4.01 4.32 3.02 5.64 2 7 C0.68 6.34 -0.64 5.68 -2 5 C-1.125 1.125 -1.125 1.125 0 0 Z " fill="#7ACDE0" transform="translate(257,272)"/>
<path d="M0 0 C3.5 0.25 3.5 0.25 5.5 2.25 C3.6128125 2.37375 3.6128125 2.37375 1.6875 2.5 C-1.81302273 2.88700664 -1.81302273 2.88700664 -4.375 5.3125 C-4.74625 5.951875 -5.1175 6.59125 -5.5 7.25 C-6.16 7.25 -6.82 7.25 -7.5 7.25 C-4.95945946 0.3542471 -4.95945946 0.3542471 0 0 Z " fill="#07283B" transform="translate(396.5,304.75)"/>
<path d="M0 0 C0.99 0.33 1.98 0.66 3 1 C-1.75 5 -1.75 5 -4 5 C-3.319375 6.11375 -2.63875 7.2275 -1.9375 8.375 C-0.77734375 10.2734375 -0.77734375 10.2734375 0 12 C-0.33 12.66 -0.66 13.32 -1 14 C-1.66 12.68 -2.32 11.36 -3 10 C-3.66 10 -4.32 10 -5 10 C-5.3125 7.25 -5.3125 7.25 -5 4 C-2.6875 1.5625 -2.6875 1.5625 0 0 Z " fill="#2A266A" transform="translate(175,179)"/>
<path d="M0 0 C1.15957207 3.47871621 0.77456651 4.34219645 -0.4375 7.6875 C-0.86869141 8.89986328 -0.86869141 8.89986328 -1.30859375 10.13671875 C-1.53675781 10.75160156 -1.76492188 11.36648437 -2 12 C-2.66 12 -3.32 12 -4 12 C-4.49230769 4.61538462 -4.49230769 4.61538462 -2 1.5 C-1.34 1.005 -0.68 0.51 0 0 Z " fill="#142F5B" transform="translate(320,162)"/>
<path d="M0 0 C0.99 0 1.98 0 3 0 C1.35433477 5.68502535 -1.29032784 10.76681636 -4 16 C-5 13 -5 13 -4.2578125 11.1328125 C-3.69707031 10.13894531 -3.69707031 10.13894531 -3.125 9.125 C-1.49455291 6.07775061 -0.43372112 3.46976899 0 0 Z " fill="#272365" transform="translate(118,241)"/>
<path d="M0 0 C0 0.66 0 1.32 0 2 C-1.27875 2.0825 -2.5575 2.165 -3.875 2.25 C-6.05333418 2.45869931 -6.05333418 2.45869931 -8 3 C-9.5899433 4.92064793 -9.5899433 4.92064793 -10 7 C-10.22111261 4.27294446 -10.30361625 2.53579338 -8.9375 0.125 C-5.88430685 -1.64782183 -3.33588292 -0.69235306 0 0 Z " fill="#144B60" transform="translate(262,270)"/>
<path d="M0 0 C0.66 0 1.32 0 2 0 C2.49940808 6.11774896 1.24900602 9.02495953 -2 14 C-2.66 14 -3.32 14 -4 14 C-2.2278481 8.43037975 -2.2278481 8.43037975 -0.875 5.875 C0.28192364 3.74073093 0.28192364 3.74073093 0 0 Z " fill="#2D2772" transform="translate(137,248)"/>
<path d="M0 0 C0.66 0 1.32 0 2 0 C1.67506385 3.5742977 1.36129314 5.55712453 -0.9375 8.375 C-3 10 -3 10 -5 10 C-3.33333333 6.66666667 -1.66666667 3.33333333 0 0 Z " fill="#0E1F3D" transform="translate(387,207)"/>
<path d="M0 0 C0.66 0.33 1.32 0.66 2 1 C1.566875 1.350625 1.13375 1.70125 0.6875 2.0625 C-1.68358456 4.78485635 -2.6716835 7.64758216 -4 11 C-4.66 11 -5.32 11 -6 11 C-6.375 8.875 -6.375 8.875 -6 6 C-4.20659643 3.76086748 -2.16547337 1.87545461 0 0 Z " fill="#0F2140" transform="translate(373,199)"/>
<path d="M0 0 C0.66 0 1.32 0 2 0 C2.28875 0.763125 2.5775 1.52625 2.875 2.3125 C3.96269013 5.15029308 3.96269013 5.15029308 6 8 C4.33388095 8.042721 2.66617115 8.04063832 1 8 C0 7 0 7 -0.0625 3.4375 C-0.041875 2.303125 -0.02125 1.16875 0 0 Z " fill="#075169" transform="translate(257,351)"/>
<path d="M0 0 C1.65 0 3.3 0 5 0 C5 1.65 5 3.3 5 5 C3.35 5 1.7 5 0 5 C0 3.35 0 1.7 0 0 Z " fill="#66C6D5" transform="translate(296,258)"/>
<path d="M0 0 C1.32 0.66 2.64 1.32 4 2 C3.34 3.32 2.68 4.64 2 6 C0.68 5.34 -0.64 4.68 -2 4 C-1.34 2.68 -0.68 1.36 0 0 Z " fill="#4FB3C3" transform="translate(315,265)"/>
<path d="M0 0 C0.66 0.33 1.32 0.66 2 1 C1.0409375 1.556875 1.0409375 1.556875 0.0625 2.125 C-2.63858072 4.58052793 -2.68407005 6.44578805 -3 10 C-4.5625 8.1875 -4.5625 8.1875 -6 6 C-5 3 -5 3 -2.5625 1.25 C-1.716875 0.8375 -0.87125 0.425 0 0 Z " fill="#662FA0" transform="translate(476,520)"/>
<path d="M0 0 C-0.33 1.32 -0.66 2.64 -1 4 C-3.97 4.66 -6.94 5.32 -10 6 C-4 0 -4 0 0 0 Z " fill="#272262" transform="translate(153,455)"/>
<path d="M0 0 C1.2375 0.1546875 1.2375 0.1546875 2.5 0.3125 C3.16 1.3025 3.82 2.2925 4.5 3.3125 C4.17 4.3025 3.84 5.2925 3.5 6.3125 C3.17 5.6525 2.84 4.9925 2.5 4.3125 C0.1859378 3.58174352 -2.14828869 2.91111742 -4.5 2.3125 C-2.5 0.3125 -2.5 0.3125 0 0 Z " fill="#07546D" transform="translate(295.5,365.6875)"/>
<path d="M0 0 C1.134375 0.020625 2.26875 0.04125 3.4375 0.0625 C0.4375 2.0625 0.4375 2.0625 -2.5625 2.0625 C-2.5625 3.7125 -2.5625 5.3625 -2.5625 7.0625 C-3.2225 7.0625 -3.8825 7.0625 -4.5625 7.0625 C-4.60504356 5.06295254 -4.60330783 3.06208364 -4.5625 1.0625 C-3.5625 0.0625 -3.5625 0.0625 0 0 Z " fill="#2E6478" transform="translate(246.5625,322.9375)"/>
<path d="M0 0 C1.98 0.495 1.98 0.495 4 1 C4 2.32 4 3.64 4 5 C2.35 4.67 0.7 4.34 -1 4 C-0.67 2.68 -0.34 1.36 0 0 Z " fill="#3FA0B3" transform="translate(325,279)"/>
<path d="M0 0 C2.475 0.495 2.475 0.495 5 1 C4.67 2.32 4.34 3.64 4 5 C2.68 4.67 1.36 4.34 0 4 C0 2.68 0 1.36 0 0 Z " fill="#6CD4E7" transform="translate(275,260)"/>
<path d="M0 0 C4.93928888 -0.3367697 5.78492722 -0.16130459 10 3 C6.37 2.67 2.74 2.34 -1 2 C-0.67 1.34 -0.34 0.68 0 0 Z " fill="#2A1646" transform="translate(217,513)"/>
<path d="M0 0 C0.33 0.99 0.66 1.98 1 3 C1.66 3 2.32 3 3 3 C3.99 4.485 3.99 4.485 5 6 C8.06556598 6.73343428 8.06556598 6.73343428 11 7 C11 7.33 11 7.66 11 8 C4.67741935 8.48635236 4.67741935 8.48635236 1.5625 6.25 C0 4 0 4 0 0 Z " fill="#0D1934" transform="translate(393,263)"/>
<path d="M0 0 C-3 2 -3 2 -5 2 C-5 2.66 -5 3.32 -5 4 C-6.62626404 5.38232443 -8.2925002 6.71937515 -10 8 C-8.2565271 1.8307882 -6.61067842 -0.35733397 0 0 Z " fill="#0D1C38" transform="translate(327,158)"/>
<path d="M0 0 C2 2 2 2 2 6 C0.02 6.99 -1.96 7.98 -4 9 C-3.71125 8.443125 -3.4225 7.88625 -3.125 7.3125 C-1.9586747 4.91505355 -0.9660119 2.48403061 0 0 Z " fill="#642E9D" transform="translate(506,531)"/>
<path d="M0 0 C0.66 0.66 1.32 1.32 2 2 C1.64700993 5.44165321 0.95418308 7.06872538 -1 10 C-1.66 10 -2.32 10 -3 10 C-2.01 6.7 -1.02 3.4 0 0 Z " fill="#082437" transform="translate(378,350)"/>
<path d="M0 0 C2.35448165 2.55068845 2.98327924 3.71017358 3.1875 7.25 C3.125625 8.1575 3.06375 9.065 3 10 C1.5 8.9375 1.5 8.9375 0 7 C-0.1875 3.3125 -0.1875 3.3125 0 0 Z " fill="#1F1C4D" transform="translate(122,445)"/>
<path d="M0 0 C1.65 0 3.3 0 5 0 C5 2.97 5 5.94 5 9 C3 6 3 6 2.5 3.9375 C2.11802369 1.77936701 2.11802369 1.77936701 0 0 Z " fill="#091E30" transform="translate(321,368)"/>
<path d="M0 0 C0.33 0 0.66 0 1 0 C1 1.98 1 3.96 1 6 C-0.32 6.33 -1.64 6.66 -3 7 C-1.125 1.125 -1.125 1.125 0 0 Z " fill="#371C5B" transform="translate(237,532)"/>
<path d="M0 0 C0.66 0.33 1.32 0.66 2 1 C-0.12780579 3.34058637 -2.11562221 4.70700306 -5 6 C-5.66 5.34 -6.32 4.68 -7 4 C-1.7265625 0.77734375 -1.7265625 0.77734375 0 0 Z " fill="#662FA1" transform="translate(485,515)"/>
<path d="M0 0 C0.99 0 1.98 0 3 0 C2.67 1.32 2.34 2.64 2 4 C-0.31 4.33 -2.62 4.66 -5 5 C-3.68 4.67 -2.36 4.34 -1 4 C-0.67 2.68 -0.34 1.36 0 0 Z " fill="#231F59" transform="translate(132,262)"/>
<path d="M0 0 C2.125 0.375 2.125 0.375 4 1 C2.824375 1.928125 2.824375 1.928125 1.625 2.875 C-0.96837647 4.89858661 -0.96837647 4.89858661 -3 7 C-2.25 2.25 -2.25 2.25 0 0 Z " fill="#07465E" transform="translate(367,347)"/>
</svg>
